<svg xmlns="http://www.w3.org/2000/svg" viewBox="0 0 24 24" width="24" height="24">
  <defs>
    <linearGradient id="grad1" x1="0%" y1="0%" x2="100%" y2="100%">
      <stop offset="0%" style="stop-color:#6366f1;stop-opacity:1" />
      <stop offset="100%" style="stop-color:#8b5cf6;stop-opacity:1" />
    </linearGradient>
  </defs>
  <circle cx="12" cy="12" r="11" fill="url(#grad1)"/>
  <path d="M8 9.5C8 8.67 8.67 8 9.5 8S11 8.67 11 9.5 10.33 11 9.5 11 8 10.33 8 9.5zM13 9.5c0-.83.67-1.5 1.5-1.5s1.5.67 1.5 1.5-.67 1.5-1.5 1.5S13 10.33 13 9.5zM7.5 14.5c0 0 1.5 2 4.5 2s4.5-2 4.5-2" stroke="white" stroke-width="1.5" stroke-linecap="round" fill="none"/>
  <circle cx="12" cy="5" r="1.5" fill="white"/>
  <circle cx="12" cy="19" r="1.5" fill="white"/>
  <circle cx="5" cy="12" r="1.5" fill="white"/>
  <circle cx="19" cy="12" r="1.5" fill="white"/>
</svg>
